<svg width="811" height="145" viewBox="0 0 811 145" fill="none" xmlns="http://www.w3.org/2000/svg">
<g filter="url(#filter0_d)">
<path d="M53.1178 105.152C43.2298 105.152 34.5898 103.04 27.1978 98.816C19.9018 94.496 14.2858 88.4 10.3498 80.528C6.41375 72.656 4.44575 63.344 4.44575 52.592C4.44575 41.936 6.41375 32.672 10.3498 24.8C14.2858 16.928 19.9018 10.88 27.1978 6.65599C34.5898 2.43199 43.2298 0.319996 53.1178 0.319996C60.1258 0.319996 66.6058 1.424 72.5578 3.632C78.6058 5.744 83.6938 8.864 87.8218 12.992L82.6378 23.936C77.8378 20 73.0858 17.168 68.3818 15.44C63.7738 13.616 58.7338 12.704 53.2618 12.704C42.6058 12.704 34.3498 16.16 28.4938 23.072C22.7338 29.984 19.8538 39.824 19.8538 52.592C19.8538 65.456 22.7338 75.392 28.4938 82.4C34.3498 89.312 42.6058 92.768 53.2618 92.768C58.7338 92.768 63.7738 91.904 68.3818 90.176C73.0858 88.352 77.8378 85.472 82.6378 81.536L87.8218 92.48C83.6938 96.608 78.6058 99.776 72.5578 101.984C66.6058 104.096 60.1258 105.152 53.1178 105.152ZM141.331 29.696C143.539 29.696 145.843 30.032 148.243 30.704L147.955 43.952C145.363 42.992 142.531 42.512 139.459 42.512C132.835 42.512 127.843 44.528 124.483 48.56C121.219 52.496 119.587 57.488 119.587 63.536V104H105.187V51.872C105.187 44.288 104.803 37.472 104.035 31.424H117.571L118.867 44.528C120.787 39.728 123.763 36.08 127.795 33.584C131.827 30.992 136.339 29.696 141.331 29.696ZM229.639 31.424L195.799 109.904C192.055 118.448 187.351 124.688 181.687 128.624C176.119 132.656 169.207 135.344 160.951 136.688L157.783 125.456C164.599 123.92 169.735 121.904 173.191 119.408C176.743 117.008 179.575 113.36 181.687 108.464L184.279 102.416L153.751 31.424H169.159L191.911 87.584L215.095 31.424H229.639ZM279.338 29.696C285.578 29.696 291.146 31.28 296.042 34.448C300.938 37.616 304.73 42.08 307.418 47.84C310.202 53.6 311.594 60.224 311.594 67.712C311.594 75.2 310.25 81.776 307.562 87.44C304.874 93.008 301.082 97.328 296.186 100.4C291.29 103.472 285.674 105.008 279.338 105.008C273.77 105.008 268.874 103.856 264.65 101.552C260.522 99.152 257.402 95.744 255.29 91.328V135.104H240.89V51.872C240.89 44.288 240.506 37.472 239.738 31.424H253.274L254.714 44.816C256.634 40.016 259.754 36.32 264.074 33.728C268.394 31.04 273.482 29.696 279.338 29.696ZM276.026 93.488C282.554 93.488 287.642 91.232 291.29 86.72C294.938 82.208 296.762 75.872 296.762 67.712C296.762 59.456 294.938 53.024 291.29 48.416C287.642 43.712 282.554 41.36 276.026 41.36C269.306 41.36 264.17 43.616 260.618 48.128C257.066 52.64 255.29 59.072 255.29 67.424C255.29 75.776 257.066 82.208 260.618 86.72C264.266 91.232 269.402 93.488 276.026 93.488ZM347.223 42.656V79.088C347.223 84.08 348.279 87.632 350.391 89.744C352.599 91.76 355.623 92.768 359.463 92.768C361.959 92.768 364.503 92.384 367.095 91.616V103.424C363.927 104.48 360.327 105.008 356.295 105.008C348.807 105.008 342.999 102.896 338.871 98.672C334.743 94.448 332.679 88.304 332.679 80.24V42.656H318.567V31.424H332.679V13.28L347.223 8.24V31.424H367.239V42.656H347.223ZM411.92 105.008C404.816 105.008 398.576 103.472 393.2 100.4C387.824 97.328 383.648 92.96 380.672 87.296C377.792 81.632 376.352 75.008 376.352 67.424C376.352 59.84 377.792 53.216 380.672 47.552C383.648 41.792 387.824 37.376 393.2 34.304C398.576 31.232 404.816 29.696 411.92 29.696C418.928 29.696 425.12 31.232 430.496 34.304C435.872 37.376 440 41.792 442.88 47.552C445.856 53.216 447.344 59.84 447.344 67.424C447.344 75.008 445.856 81.632 442.88 87.296C440 92.96 435.872 97.328 430.496 100.4C425.12 103.472 418.928 105.008 411.92 105.008ZM411.776 93.488C418.496 93.488 423.632 91.28 427.184 86.864C430.736 82.448 432.512 75.968 432.512 67.424C432.512 59.072 430.688 52.64 427.04 48.128C423.488 43.616 418.448 41.36 411.92 41.36C405.296 41.36 400.16 43.616 396.512 48.128C392.864 52.64 391.04 59.072 391.04 67.424C391.04 75.968 392.816 82.448 396.368 86.864C400.016 91.28 405.152 93.488 411.776 93.488ZM588.126 1.472V104H576.75L517.998 26.528V104H504.03V1.472H515.262L574.158 79.088V1.472H588.126ZM641.982 105.008C634.878 105.008 628.638 103.472 623.262 100.4C617.886 97.328 613.71 92.96 610.734 87.296C607.854 81.632 606.414 75.008 606.414 67.424C606.414 59.84 607.854 53.216 610.734 47.552C613.71 41.792 617.886 37.376 623.262 34.304C628.638 31.232 634.878 29.696 641.982 29.696C648.99 29.696 655.182 31.232 660.558 34.304C665.934 37.376 670.062 41.792 672.942 47.552C675.918 53.216 677.406 59.84 677.406 67.424C677.406 75.008 675.918 81.632 672.942 87.296C670.062 92.96 665.934 97.328 660.558 100.4C655.182 103.472 648.99 105.008 641.982 105.008ZM641.838 93.488C648.558 93.488 653.694 91.28 657.246 86.864C660.798 82.448 662.574 75.968 662.574 67.424C662.574 59.072 660.75 52.64 657.102 48.128C653.55 43.616 648.51 41.36 641.982 41.36C635.358 41.36 630.222 43.616 626.574 48.128C622.926 52.64 621.102 59.072 621.102 67.424C621.102 75.968 622.878 82.448 626.43 86.864C630.078 91.28 635.214 93.488 641.838 93.488ZM806.03 31.424L778.382 104H765.134L745.694 51.44L726.398 104H713.15L685.502 31.424H700.622L720.35 86.864L740.366 31.424H751.886L771.902 86.864L791.774 31.424H806.03Z" fill="#D5CBCB"/>
</g>
<defs>
<filter id="filter0_d" x="0.445755" y="0.320007" width="809.584" height="144.368" filterUnits="userSpaceOnUse" color-interpolation-filters="sRGB">
<feFlood flood-opacity="0" result="BackgroundImageFix"/>
<feColorMatrix in="SourceAlpha" type="matrix" values="0 0 0 0 0 0 0 0 0 0 0 0 0 0 0 0 0 0 127 0"/>
<feOffset dy="4"/>
<feGaussianBlur stdDeviation="2"/>
<feColorMatrix type="matrix" values="0 0 0 0 0 0 0 0 0 0 0 0 0 0 0 0 0 0 0.25 0"/>
<feBlend mode="normal" in2="BackgroundImageFix" result="effect1_dropShadow"/>
<feBlend mode="normal" in="SourceGraphic" in2="effect1_dropShadow" result="shape"/>
</filter>
</defs>
</svg>
